<svg width="38" height="49" viewBox="0 0 38 49" fill="none" xmlns="http://www.w3.org/2000/svg">
<path d="M26.3337 48.7085C25.8142 48.7085 25.3788 48.4889 25.0274 48.0496C24.676 47.6104 24.5003 47.0661 24.5003 46.4168C24.5003 45.7675 24.676 45.2233 25.0274 44.784C25.3788 44.3448 25.8142 44.1252 26.3337 44.1252H31.8337V41.8335H26.3337C25.8142 41.8335 25.3788 41.6139 25.0274 41.1746C24.676 40.7354 24.5003 40.1911 24.5003 39.5418C24.5003 38.8925 24.676 38.3483 25.0274 37.909C25.3788 37.4698 25.8142 37.2502 26.3337 37.2502H31.8337V34.9585H26.3337C25.8142 34.9585 25.3788 34.7389 25.0274 34.2996C24.676 33.8604 24.5003 33.3161 24.5003 32.6668C24.5003 32.0175 24.676 31.4733 25.0274 31.034C25.3788 30.5948 25.8142 30.3752 26.3337 30.3752H31.8337V28.0835H26.3337C25.8142 28.0835 25.3788 27.8639 25.0274 27.4246C24.676 26.9854 24.5003 26.4411 24.5003 25.7918C24.5003 25.1425 24.676 24.5983 25.0274 24.159C25.3788 23.7198 25.8142 23.5002 26.3337 23.5002H31.8337V21.2085H26.3337C25.8142 21.2085 25.3788 20.9889 25.0274 20.5496C24.676 20.1104 24.5003 19.5661 24.5003 18.9168C24.5003 18.2675 24.676 17.7233 25.0274 17.284C25.3788 16.8448 25.8142 16.6252 26.3337 16.6252H31.8337V14.3335H26.3337C25.8142 14.3335 25.3788 14.1139 25.0274 13.6746C24.676 13.2354 24.5003 12.6911 24.5003 12.0418C24.5003 11.3925 24.676 10.8483 25.0274 10.409C25.3788 9.96978 25.8142 9.75016 26.3337 9.75016H33.667C34.6753 9.75016 35.5385 10.1989 36.2566 11.0965C36.9746 11.9941 37.3337 13.0731 37.3337 14.3335V44.1252C37.3337 45.3856 36.9746 46.4646 36.2566 47.3621C35.5385 48.2597 34.6753 48.7085 33.667 48.7085H26.3337ZM11.667 30.3752C13.6837 30.3752 15.41 29.1338 16.8462 26.6512C18.2823 24.1686 19.0003 21.2085 19.0003 17.771C19.0003 14.3335 18.2823 11.3734 16.8462 8.89079C15.41 6.40815 13.6837 5.16683 11.667 5.16683C9.65033 5.16683 7.92394 6.40815 6.48783 8.89079C5.05171 11.3734 4.33366 14.3335 4.33366 17.771C4.33366 21.2085 5.05171 24.1686 6.48783 26.6512C7.92394 29.1338 9.65033 30.3752 11.667 30.3752ZM11.667 48.7085C10.2003 48.7085 8.99338 48.0305 8.04616 46.6746C7.09894 45.3187 6.73227 43.7241 6.94616 41.8908L7.67949 33.8127C5.60171 32.5522 3.91352 30.4802 2.61491 27.5965C1.3163 24.7128 0.666992 21.4377 0.666992 17.771C0.666992 12.9967 1.73644 8.93853 3.87533 5.59652C6.01421 2.2545 8.61144 0.583496 11.667 0.583496C14.7225 0.583496 17.3198 2.2545 19.4587 5.59652C21.5975 8.93853 22.667 12.9967 22.667 17.771C22.667 21.4377 22.0177 24.7128 20.7191 27.5965C19.4205 30.4802 17.7323 32.5522 15.6545 33.8127L16.3878 41.8908C16.6017 43.7241 16.235 45.3187 15.2878 46.6746C14.3406 48.0305 13.1337 48.7085 11.667 48.7085Z" fill="#15AB98"/>
</svg>
