<svg width="34" height="43" viewBox="0 0 34 43" fill="none" xmlns="http://www.w3.org/2000/svg">
<path d="M26.1667 0.869629C28.1833 0.869629 29.9097 1.7672 31.3458 3.56234C32.7819 5.35748 33.5 7.51546 33.5 10.0363C33.5 10.4564 33.4771 11.0198 33.4313 11.7264C33.3854 12.433 33.3167 13.2446 33.225 14.1613L30.7042 37.2498C30.5514 38.7012 30.0243 39.8853 29.1229 40.8019C28.2215 41.7186 27.1903 42.1769 26.0292 42.1769C25.3264 42.1769 24.6771 41.9859 24.0813 41.604C23.4854 41.2221 22.9889 40.6873 22.5917 39.9998L17.6875 31.0623C17.6264 30.9096 17.5271 30.8045 17.3896 30.7472C17.2521 30.6899 17.1069 30.6613 16.9542 30.6613C16.8319 30.6613 16.5875 30.8332 16.2208 31.1769L11.4542 39.828C11.0264 40.5919 10.4993 41.1743 9.87292 41.5754C9.24653 41.9764 8.58194 42.1769 7.87917 42.1769C6.71806 42.1769 5.69445 41.709 4.80833 40.7733C3.92222 39.8375 3.40278 38.6439 3.25 37.1925L0.775 14.1613C0.683333 13.2446 0.614583 12.433 0.56875 11.7264C0.522917 11.0198 0.5 10.4564 0.5 10.0363C0.5 7.51546 1.21806 5.35748 2.65417 3.56234C4.09028 1.7672 5.81667 0.869629 7.83333 0.869629C8.93333 0.869629 9.81181 1.05105 10.4688 1.4139C11.1257 1.77675 11.7597 2.16824 12.3708 2.58838C12.9819 3.00852 13.6313 3.40001 14.3188 3.76286C15.0063 4.12571 15.9 4.30713 17 4.30713C18.1 4.30713 18.9938 4.12571 19.6813 3.76286C20.3688 3.40001 21.0181 3.00852 21.6292 2.58838C22.2403 2.16824 22.8819 1.77675 23.5542 1.4139C24.2264 1.05105 25.0972 0.869629 26.1667 0.869629ZM26.1667 5.45296C25.4639 5.45296 24.8451 5.63439 24.3104 5.99723C23.7757 6.36008 23.1875 6.75157 22.5458 7.17171C21.9042 7.59185 21.1556 7.98334 20.3 8.34619C19.4444 8.70904 18.3444 8.89046 17 8.89046C15.6556 8.89046 14.5556 8.70904 13.7 8.34619C12.8444 7.98334 12.0958 7.59185 11.4542 7.17171C10.8125 6.75157 10.2243 6.36008 9.68958 5.99723C9.15486 5.63439 8.53611 5.45296 7.83333 5.45296C6.825 5.45296 5.96181 5.90175 5.24375 6.79932C4.52569 7.69689 4.16667 8.77588 4.16667 10.0363C4.16667 10.3419 4.18194 10.7811 4.2125 11.354C4.24306 11.9269 4.30417 12.5953 4.39583 13.3592L6.91667 36.5623C6.94722 36.8679 7.05417 37.1066 7.2375 37.2785C7.42083 37.4504 7.63472 37.5363 7.87917 37.5363C8.03194 37.5363 8.16944 37.4981 8.29167 37.4217C8.41389 37.3453 8.50556 37.2307 8.56667 37.078L13.1958 28.5988C13.6236 27.8349 14.1736 27.2238 14.8458 26.7655C15.5181 26.3071 16.2361 26.078 17 26.078C17.7639 26.078 18.4819 26.3071 19.1542 26.7655C19.8264 27.2238 20.3764 27.8349 20.8042 28.5988L25.525 37.2498C25.5861 37.3644 25.6625 37.4504 25.7542 37.5077C25.8458 37.5649 25.9528 37.5936 26.075 37.5936C26.3194 37.5936 26.541 37.5077 26.7396 37.3358C26.9382 37.1639 27.0528 36.9252 27.0833 36.6196L29.6042 13.3592C29.6958 12.5953 29.7569 11.9269 29.7875 11.354C29.8181 10.7811 29.8333 10.3419 29.8333 10.0363C29.8333 8.77588 29.4743 7.69689 28.7563 6.79932C28.0382 5.90175 27.175 5.45296 26.1667 5.45296Z" fill="#15AB98"/>
</svg>
