<svg width="44" height="55" viewBox="0 0 44 55" fill="none" xmlns="http://www.w3.org/2000/svg">
<path fill-rule="evenodd" clip-rule="evenodd" d="M21.9419 30.5556H22.0397C28.7899 30.5556 34.2617 23.7157 34.2617 15.2778C34.2617 6.83986 28.7899 0 22.0397 0H21.9419C15.237 0.0656944 9.81772 6.88111 9.81772 15.2778C9.81772 23.6744 15.237 30.4899 21.9419 30.5556ZM31.7415 16.8056H29.2971C29.2311 18.2004 29.0747 19.5403 28.84 20.8007H30.7638C31.272 19.5496 31.6028 18.1979 31.7415 16.8056ZM29.0038 23.8563H28.0688C27.8892 24.4108 27.69 24.9379 27.4773 25.4375C28.0279 24.9762 28.5398 24.4464 29.005 23.8563H29.0038ZM26.3186 20.8007C26.5851 19.5831 26.7709 18.2401 26.8479 16.8056H23.2619V20.8007H26.3186ZM23.2619 23.8563H25.3812C25.2871 24.0824 25.1906 24.2993 25.0903 24.5086C24.4792 25.7782 23.8474 26.5635 23.2619 27.0081V23.8563ZM20.8175 20.8007V16.8056H17.1534C17.2304 18.2401 17.4161 19.5831 17.6826 20.8007H20.8175ZM18.62 23.8563H20.8175V27.0646C20.2113 26.6322 19.5489 25.8363 18.9109 24.5086C18.8086 24.295 18.7116 24.0774 18.62 23.8563ZM15.1612 20.8007C14.9192 19.4874 14.7663 18.151 14.7041 16.8056H12.3379C12.4797 18.2264 12.817 19.5739 13.3157 20.8007H15.1612ZM15.0756 23.8563H15.9312C16.0998 24.3726 16.2832 24.8646 16.4799 25.3321C15.9756 24.896 15.5063 24.4019 15.0756 23.8563ZM29.2971 13.75C29.235 12.4046 29.0821 11.0681 28.84 9.75486H30.7638C31.2723 11.0057 31.6032 12.3576 31.7415 13.75H29.2971ZM29.0038 6.69931H28.0688C27.8892 6.14472 27.69 5.61764 27.4773 5.11806C28.0285 5.58097 28.5406 6.11111 29.005 6.69931H29.0038ZM23.2619 6.69931H25.3812C25.2897 6.47815 25.1927 6.26059 25.0903 6.04694C24.4792 4.77583 23.8474 3.99208 23.2619 3.5475V6.69931ZM26.3186 9.75486H23.2619V13.75H26.8479C26.7778 12.3997 26.6005 11.0614 26.3186 9.75486ZM20.8175 3.49097V6.69931H18.62C18.7141 6.4732 18.8119 6.25625 18.9109 6.04694C19.5477 4.71931 20.2113 3.92486 20.8175 3.49097ZM20.8175 9.75486H17.6826C17.4161 10.9725 17.2304 12.3154 17.1534 13.75H20.8175V9.75486ZM16.4787 5.22347C16.2832 5.69097 16.0998 6.18292 15.9324 6.69931H15.0756C15.5046 6.15389 15.9739 5.66042 16.4787 5.22347ZM15.1612 9.75486H13.3157C12.8075 11.0059 12.4767 12.3577 12.3379 13.75H14.7041C14.7701 12.3536 14.9265 11.0153 15.1612 9.75486ZM3.33761 16.8056C2.06897 16.7689 0.795439 17.7421 0.383558 19.2576C0.280893 19.6365 0.224672 20.1315 0.184339 20.5822C0.141562 21.0742 0.108562 21.6654 0.0828962 22.3086C0.0299197 23.7815 0.00261755 25.2556 0.00100889 26.73C-0.00876871 29.8131 0.0535637 33.0214 0.142784 34.016C0.299226 35.7576 1.10099 37.3801 1.79764 38.7918L1.87586 38.9492C2.0873 39.3769 2.2963 39.8032 2.50163 40.2417C3.42317 42.214 4.42537 43.5432 5.33347 44.7486L5.35425 44.7746C5.86512 45.4514 6.33812 46.0808 6.78422 46.7821C6.35145 47.3499 6.11066 48.1046 6.11201 48.8889V51.9444C6.11201 52.7548 6.36954 53.532 6.82796 54.1051C7.28637 54.6781 7.90811 55 8.55641 55H18.334C18.9823 55 19.604 54.6781 20.0625 54.1051C20.5209 53.532 20.7784 52.7548 20.7784 51.9444V48.8889C20.7784 48.1156 20.5438 47.371 20.1219 46.8054C19.7 46.2397 19.1223 45.8951 18.5051 45.841C18.3401 44.1054 18.1262 41.7618 18.1067 41.0942C18.0896 40.5197 17.9356 39.959 17.7914 39.5328C17.64 39.0935 17.4661 38.6668 17.2707 38.2556C17.0698 37.8283 16.8545 37.4118 16.6254 37.0074L16.5777 36.9249L16.5655 36.9019L16.5606 36.8943L16.5582 36.8897L16.5459 36.8683L12.5811 30.6197L12.5444 30.5739V30.5708L12.5396 30.5647L12.5102 30.525C12.328 30.2729 12.1527 30.013 11.9847 29.7458C11.6107 29.1619 11.2847 28.5323 11.0118 27.8667C10.7331 27.1517 10.2052 26.4657 9.39484 26.4153C8.7043 26.3694 8.16286 26.8278 7.84753 27.1807C7.67387 27.3764 7.51549 27.5922 7.37454 27.8254L7.31954 26.9057L7.31343 26.8049C7.19366 24.7913 7.04821 22.3544 6.57522 20.4035C6.02034 18.121 4.78714 16.8499 3.33639 16.8071L3.33761 16.8056ZM16.0424 45.8333C15.8835 44.1528 15.6855 41.9574 15.6635 41.2057C15.6591 41.1606 15.6513 41.1161 15.6403 41.0728C15.6124 40.9516 15.5785 40.8327 15.5388 40.7168C15.4286 40.4015 15.3025 40.0954 15.1612 39.8001C14.9964 39.4497 14.8199 39.1082 14.632 38.7765L14.6002 38.72L10.7283 32.6181L10.7063 32.5875C10.4827 32.2781 10.2679 31.9592 10.0622 31.6311C9.7328 31.1092 9.43031 30.5617 9.15651 29.9918L9.14795 30.0086C9.03796 30.2638 8.97685 30.4975 8.95851 30.6503C8.89129 31.1911 8.92551 31.5639 8.95973 31.7656C8.97005 31.83 8.98435 31.8933 9.00251 31.955V31.9596L11.2416 37.5176L9.16262 39.105L9.13206 39.0531L9.04773 38.9079C8.61141 38.1557 8.17956 37.3994 7.7522 36.6392C7.01033 35.3192 6.12301 33.6997 5.68546 32.7281C5.35791 32.0024 5.20636 31.0414 5.10981 30.1721C5.01021 29.1729 4.9348 28.1703 4.8837 27.1654L4.88125 27.1318C4.75414 24.996 4.62215 22.8846 4.23593 21.2911C4.06727 20.596 3.84972 20.2461 3.69327 20.0765C3.58085 19.945 3.43405 19.869 3.28017 19.8626C2.94651 19.8519 2.72529 20.1407 2.69718 20.2446C2.69474 20.2537 2.68374 20.3057 2.66785 20.4188C2.64579 20.5825 2.62785 20.7471 2.61407 20.9122C2.57863 21.3217 2.54807 21.8472 2.52363 22.4614C2.47317 23.8875 2.4475 25.3147 2.44663 26.7422C2.43563 29.8574 2.50285 32.8869 2.57374 33.6753C2.66174 34.6607 3.15306 35.7133 3.95727 37.345L3.96094 37.3526C4.16871 37.7743 4.39237 38.2281 4.61359 38.7017C5.38724 40.3578 6.22079 41.4685 7.13377 42.6785L7.15455 42.706C7.83409 43.6074 8.5723 44.5851 9.26895 45.8333H16.0424ZM9.53417 29.4036C9.53417 29.4036 9.52928 29.4051 9.52072 29.4143C9.52554 29.4114 9.53006 29.4079 9.53417 29.4036ZM18.334 51.9444V48.8889H8.55641V51.9444H18.334ZM43.6177 19.2576C43.2046 17.7421 41.9322 16.7689 40.6636 16.8071C39.2141 16.8499 37.9809 18.121 37.426 20.4035C36.953 22.3544 36.8076 24.7913 36.6878 26.8049L36.6817 26.9057L36.6267 27.8254C36.48 27.5856 36.3211 27.3671 36.1537 27.1807C35.8384 26.8293 35.2981 26.371 34.6064 26.4137C33.7961 26.4657 33.2681 27.1517 32.9894 27.8651C32.716 28.5308 32.3897 29.1604 32.0153 29.7443C31.8474 30.0121 31.6721 30.2725 31.4898 30.525L31.4617 30.5647L31.4568 30.5724L31.4201 30.6197L27.4565 36.8683L27.4431 36.8897L27.4406 36.8943L27.437 36.9019L27.4235 36.9249C27.1764 37.3544 26.9451 37.798 26.7305 38.254C26.5347 38.6658 26.3604 39.0929 26.2086 39.5328C26.0656 39.959 25.9117 40.5197 25.8945 41.0942C25.875 41.7618 25.6623 44.1054 25.4961 45.841C24.879 45.8951 24.3012 46.2397 23.8793 46.8054C23.4574 47.371 23.2228 48.1156 23.2228 48.8889V51.9444C23.2228 52.7548 23.4803 53.532 23.9388 54.1051C24.3972 54.6781 25.0189 55 25.6672 55H35.4448C36.0931 55 36.7149 54.6781 37.1733 54.1051C37.6317 53.532 37.8892 52.7548 37.8892 51.9444V48.8889C37.8897 48.1041 37.6485 47.3491 37.2158 46.7806C37.6631 46.0808 38.1349 45.4514 38.6458 44.7746L38.6665 44.7471C39.5746 43.5432 40.5768 42.214 41.4984 40.2417C41.7037 39.8032 41.9139 39.3785 42.1241 38.9492L42.2024 38.7918C42.899 37.3801 43.7008 35.7576 43.8572 34.016C43.9464 33.0214 44.0088 29.8131 43.999 26.73C43.9978 25.2556 43.9709 23.7815 43.9183 22.3086C43.8975 21.7321 43.8637 21.1564 43.8169 20.5822C43.7778 20.1315 43.7215 19.635 43.6177 19.2576ZM34.7335 45.8333C35.4301 44.5851 36.1671 43.6074 36.8479 42.706L36.8675 42.6785C37.7804 41.4685 38.6152 40.3563 39.3876 38.7017C39.6076 38.2281 39.8313 37.7758 40.0403 37.3526L40.0439 37.345C40.8494 35.7133 41.3395 34.6607 41.4275 33.6753C41.4984 32.8869 41.5644 29.8574 41.5546 26.7422C41.5497 25.2053 41.5265 23.6867 41.4776 22.4614C41.4531 21.8472 41.4226 21.3217 41.3871 20.9122C41.3733 20.7471 41.3554 20.5825 41.3334 20.4188C41.3258 20.3601 41.3161 20.302 41.304 20.2446C41.2759 20.1407 41.0547 19.8519 40.7223 19.8626C40.568 19.8687 40.4207 19.9447 40.3079 20.0765C40.1515 20.2446 39.9339 20.596 39.7653 21.2911C39.3791 22.8831 39.2471 24.996 39.12 27.1318L39.1175 27.1654C39.0564 28.2104 38.9929 29.2646 38.8914 30.1721C38.7961 31.0414 38.6433 32.0024 38.317 32.7296C37.8782 33.6997 36.9909 35.3192 36.249 36.6407C35.8216 37.4004 35.3898 38.1562 34.9535 38.9079L34.8679 39.0531L34.8386 39.105L32.7596 37.5161L34.9975 31.9596L34.9987 31.955C35.0168 31.8933 35.0311 31.83 35.0415 31.7656C35.0757 31.5639 35.1099 31.1911 35.0427 30.6503C35.0079 30.4249 34.9439 30.2082 34.8533 30.0086L34.8447 29.9918C34.544 30.6258 34.2128 31.1942 33.9403 31.6296C33.7342 31.9582 33.519 32.2777 33.295 32.5875L33.2717 32.6181L29.401 38.72L29.3693 38.7765C29.1814 39.1083 29.0049 39.4498 28.84 39.8001C28.6934 40.1118 28.5589 40.4311 28.4624 40.7168C28.4147 40.8589 28.3817 40.9765 28.3609 41.0713C28.35 41.1151 28.3422 41.1601 28.3377 41.2057C28.3157 41.9574 28.1177 44.1543 27.9588 45.8333H34.7335ZM34.4671 29.4036C34.4671 29.4036 34.4719 29.4051 34.4805 29.4143C34.4757 29.4114 34.4712 29.4078 34.4671 29.4036ZM25.6672 51.9444V48.8889H35.4448V51.9444H25.6672Z" fill="#15AB98"/>
</svg>
