<svg width="26" height="45" viewBox="0 0 26 45" fill="none" xmlns="http://www.w3.org/2000/svg">
<path d="M13.0003 44.1251C9.42533 44.1251 6.39269 42.5687 3.90241 39.4559C1.41213 36.343 0.166992 32.5522 0.166992 28.0835C0.166992 24.4932 1.01491 21.2753 2.71074 18.4298C4.40658 15.5843 6.62949 13.6651 9.37949 12.672C8.76838 12.481 8.17255 12.2041 7.59199 11.8413C7.01144 11.4784 6.49199 11.0106 6.03366 10.4376C5.02533 9.17723 4.37602 7.6781 4.08574 5.94025C3.79546 4.2024 3.72671 2.43591 3.87949 0.640771C5.3156 0.449799 6.7288 0.535736 8.11908 0.898583C9.50935 1.26143 10.7087 2.07306 11.717 3.33348C12.4198 4.21195 12.9316 5.20501 13.2524 6.31265C13.5732 7.42028 13.7795 8.58522 13.8712 9.80744C14.2684 8.62341 14.7496 7.50622 15.3149 6.45587C15.8802 5.40553 16.5142 4.44112 17.217 3.56265C17.5531 3.14251 17.9809 2.93244 18.5003 2.93244C19.0198 2.93244 19.4475 3.14251 19.7837 3.56265C20.1198 3.98278 20.2878 4.51751 20.2878 5.16681C20.2878 5.81612 20.1198 6.35084 19.7837 6.77098C19.1114 7.61126 18.5156 8.53747 17.9962 9.54963C17.4767 10.5618 17.0948 11.6408 16.8503 12.7866C19.5392 13.856 21.7087 15.7944 23.3587 18.6017C25.0087 21.409 25.8337 24.5696 25.8337 28.0835C25.8337 32.5522 24.5885 36.343 22.0982 39.4559C19.608 42.5687 16.5753 44.1251 13.0003 44.1251ZM13.0003 39.5418C15.5364 39.5418 17.6982 38.4246 19.4857 36.1903C21.2732 33.9559 22.167 31.2536 22.167 28.0835C22.167 24.9133 21.2732 22.2111 19.4857 19.9767C17.6982 17.7423 15.5364 16.6251 13.0003 16.6251C10.4642 16.6251 8.30241 17.7423 6.51491 19.9767C4.72741 22.2111 3.83366 24.9133 3.83366 28.0835C3.83366 31.2536 4.72741 33.9559 6.51491 36.1903C8.30241 38.4246 10.4642 39.5418 13.0003 39.5418Z" fill="#15AB98"/>
</svg>
