<svg width="42" height="23" viewBox="0 0 42 23" fill="none" xmlns="http://www.w3.org/2000/svg">
<path d="M11.558 18.3748C12.5052 18.3748 13.3531 18.0311 14.1018 17.3436C14.8504 16.6561 15.3775 15.7585 15.683 14.6509L16.3705 12.0155C16.8594 10.1821 16.7372 8.49203 16.0038 6.94515C15.2705 5.39827 14.2163 4.62484 12.8413 4.62484H6.37884L7.24967 13.6196C7.40245 14.9564 7.8837 16.0832 8.69342 16.9998C9.50315 17.9165 10.458 18.3748 11.558 18.3748ZM30.4413 18.3748C31.5413 18.3748 32.4962 17.9165 33.3059 16.9998C34.1156 16.0832 34.5969 14.9564 34.7497 13.6196L35.6205 4.62484H29.2038C27.8288 4.62484 26.7747 5.40782 26.0413 6.9738C25.308 8.53977 25.1858 10.2394 25.6747 12.0728L26.3163 14.6509C26.6219 15.7585 27.149 16.6561 27.8976 17.3436C28.6462 18.0311 29.4941 18.3748 30.4413 18.3748ZM11.558 22.9582C9.54134 22.9582 7.77676 22.1274 6.26426 20.466C4.75176 18.8045 3.87329 16.7134 3.62884 14.1925L2.66634 4.62484H0.833008V0.0415039H12.8413C14.1858 0.0415039 15.4156 0.452094 16.5309 1.27327C17.6462 2.09446 18.5247 3.21164 19.1663 4.62484H22.8788C23.5205 3.21164 24.399 2.09446 25.5143 1.27327C26.6295 0.452094 27.8594 0.0415039 29.2038 0.0415039H41.1663V4.62484H39.333L38.3705 14.1925C38.1261 16.7134 37.2476 18.8045 35.7351 20.466C34.2226 22.1274 32.458 22.9582 30.4413 22.9582C28.6997 22.9582 27.1337 22.3375 25.7434 21.0962C24.3531 19.8549 23.383 18.203 22.833 16.1405L22.1455 13.5623C22.0844 13.295 22.0233 13.0181 21.9622 12.7316C21.9011 12.4452 21.84 12.0346 21.7788 11.4998H20.2205C20.1594 11.9582 20.0983 12.3306 20.0372 12.617C19.9761 12.9035 19.915 13.1804 19.8538 13.4478L19.1663 16.0832C18.6163 18.1457 17.6462 19.8071 16.2559 21.0675C14.8656 22.328 13.2997 22.9582 11.558 22.9582Z" fill="#15AB98"/>
</svg>
