<svg width="44" height="59" viewBox="0 0 44 59" fill="none" xmlns="http://www.w3.org/2000/svg">
<path d="M0 57H44M14.6212 36.7619C15.6656 38.0251 16.9719 39.0021 18.433 39.6126C19.8941 40.2231 21.4682 40.4498 23.0259 40.274C24.5837 40.0981 26.0806 39.5248 27.3939 38.6011C28.7071 37.6774 29.7991 36.4297 30.5801 34.9605C31.3611 33.4913 31.8089 31.8425 31.8867 30.1495C31.9645 28.4566 31.67 26.7679 31.0275 25.222C30.385 23.6762 29.4127 22.3174 28.1907 21.2573C26.9686 20.1972 25.5316 19.466 23.9976 19.1238M23.9976 19.1238L18.7 24.8571L11 16.5238L23.034 3.5C23.4038 3.09973 23.8428 2.78221 24.326 2.56558C24.8091 2.34894 25.327 2.23744 25.85 2.23744C26.373 2.23744 26.8909 2.34894 27.374 2.56558C27.8572 2.78221 28.2962 3.09973 28.666 3.5L30.734 5.7381C31.1039 6.13828 31.3972 6.6134 31.5974 7.13632C31.7976 7.65923 31.9006 8.2197 31.9006 8.78571C31.9006 9.35173 31.7976 9.91219 31.5974 10.4351C31.3972 10.958 31.1039 11.4331 30.734 11.8333L29.1676 13.5286M23.9976 19.1238L29.1676 13.5286M6.8728 36.7619C7.85212 39.1836 9.31483 41.3405 11.1559 43.0778C12.9969 44.815 15.1706 46.0894 17.5208 46.8095M17.5208 46.8095C18.788 45.6988 20.3693 45.0927 22 45.0927C23.6307 45.0927 25.212 45.6988 26.4792 46.8095M17.5208 46.8095C16.7307 47.5022 16.0871 48.3701 15.6332 49.3548L14.3 52.2381C14.3 52.2381 12.1 57 7.7 57H36.3C31.9 57 29.7 52.2381 29.7 52.2381L28.3668 49.3548C27.9129 48.3701 27.2692 47.5022 26.4792 46.8095M9.9 23.6667L13.2 27.2381M0 33.1905H19.8M29.1676 13.5286C32.1846 15.1042 34.6872 17.6361 36.343 20.7877C37.9987 23.9393 38.7293 27.5616 38.4375 31.1733C38.1458 34.785 36.8456 38.2151 34.7096 41.008C32.5737 43.8009 29.7031 45.8243 26.4792 46.8095M29.7 4.61905L32.12 2" stroke="#15AB98" stroke-width="3"/>
</svg>
