<svg width="18" height="19" viewBox="0 0 18 19" fill="none" xmlns="http://www.w3.org/2000/svg">
<path d="M14 0.125C15.1 0.125 16.0417 0.516667 16.825 1.3C17.6083 2.08333 18 3.025 18 4.125C18 4.30833 17.9875 4.55417 17.9625 4.8625C17.9375 5.17083 17.9 5.525 17.85 5.925L16.475 16C16.3917 16.6333 16.1042 17.15 15.6125 17.55C15.1208 17.95 14.5583 18.15 13.925 18.15C13.5417 18.15 13.1875 18.0667 12.8625 17.9C12.5375 17.7333 12.2667 17.5 12.05 17.2L9.375 13.3C9.34167 13.2333 9.2875 13.1875 9.2125 13.1625C9.1375 13.1375 9.05833 13.125 8.975 13.125C8.90833 13.125 8.775 13.2 8.575 13.35L5.975 17.125C5.74167 17.4583 5.45417 17.7125 5.1125 17.8875C4.77083 18.0625 4.40833 18.15 4.025 18.15C3.39167 18.15 2.83333 17.9458 2.35 17.5375C1.86667 17.1292 1.58333 16.6083 1.5 15.975L0.15 5.925C0.1 5.525 0.0625 5.17083 0.0375 4.8625C0.0125 4.55417 0 4.30833 0 4.125C0 3.025 0.391667 2.08333 1.175 1.3C1.95833 0.516667 2.9 0.125 4 0.125C4.6 0.125 5.07917 0.204167 5.4375 0.3625C5.79583 0.520833 6.14167 0.691667 6.475 0.875C6.80833 1.05833 7.1625 1.22917 7.5375 1.3875C7.9125 1.54583 8.4 1.625 9 1.625C9.6 1.625 10.0875 1.54583 10.4625 1.3875C10.8375 1.22917 11.1917 1.05833 11.525 0.875C11.8583 0.691667 12.2083 0.520833 12.575 0.3625C12.9417 0.204167 13.4167 0.125 14 0.125ZM14 2.125C13.6167 2.125 13.2792 2.20417 12.9875 2.3625C12.6958 2.52083 12.375 2.69167 12.025 2.875C11.675 3.05833 11.2667 3.22917 10.8 3.3875C10.3333 3.54583 9.73333 3.625 9 3.625C8.26667 3.625 7.66667 3.54583 7.2 3.3875C6.73333 3.22917 6.325 3.05833 5.975 2.875C5.625 2.69167 5.30417 2.52083 5.0125 2.3625C4.72083 2.20417 4.38333 2.125 4 2.125C3.45 2.125 2.97917 2.32083 2.5875 2.7125C2.19583 3.10417 2 3.575 2 4.125C2 4.25833 2.00833 4.45 2.025 4.7C2.04167 4.95 2.075 5.24167 2.125 5.575L3.5 15.7C3.51667 15.8333 3.575 15.9375 3.675 16.0125C3.775 16.0875 3.89167 16.125 4.025 16.125C4.10833 16.125 4.18333 16.1083 4.25 16.075C4.31667 16.0417 4.36667 15.9917 4.4 15.925L6.925 12.225C7.15833 11.8917 7.45833 11.625 7.825 11.425C8.19167 11.225 8.58333 11.125 9 11.125C9.41667 11.125 9.80833 11.225 10.175 11.425C10.5417 11.625 10.8417 11.8917 11.075 12.225L13.65 16C13.6833 16.05 13.725 16.0875 13.775 16.1125C13.825 16.1375 13.8833 16.15 13.95 16.15C14.0833 16.15 14.2042 16.1125 14.3125 16.0375C14.4208 15.9625 14.4833 15.8583 14.5 15.725L15.875 5.575C15.925 5.24167 15.9583 4.95 15.975 4.7C15.9917 4.45 16 4.25833 16 4.125C16 3.575 15.8042 3.10417 15.4125 2.7125C15.0208 2.32083 14.55 2.125 14 2.125Z" fill="#938D8D"/>
</svg>
