<svg width="22" height="23" viewBox="0 0 22 23" fill="none" xmlns="http://www.w3.org/2000/svg">
<path d="M10.9993 15.8864L12.516 14.3159L10.7827 12.5211H15.3327V10.2775H10.7827L12.516 8.48271L10.9993 6.91224L6.66602 11.3993L10.9993 15.8864ZM10.9993 22.617C9.50074 22.617 8.0924 22.3225 6.77435 21.7336C5.45629 21.1446 4.30977 20.3454 3.33477 19.3358C2.35977 18.3262 1.58789 17.139 1.01914 15.7742C0.450391 14.4094 0.166016 12.9511 0.166016 11.3993C0.166016 9.84753 0.450391 8.38923 1.01914 7.02442C1.58789 5.6596 2.35977 4.4724 3.33477 3.46281C4.30977 2.45322 5.45629 1.65396 6.77435 1.06503C8.0924 0.476104 9.50074 0.181641 10.9993 0.181641C12.498 0.181641 13.9063 0.476104 15.2243 1.06503C16.5424 1.65396 17.6889 2.45322 18.6639 3.46281C19.6389 4.4724 20.4108 5.6596 20.9796 7.02442C21.5483 8.38923 21.8327 9.84753 21.8327 11.3993C21.8327 12.9511 21.5483 14.4094 20.9796 15.7742C20.4108 17.139 19.6389 18.3262 18.6639 19.3358C17.6889 20.3454 16.5424 21.1446 15.2243 21.7336C13.9063 22.3225 12.498 22.617 10.9993 22.617ZM10.9993 20.3734C13.4188 20.3734 15.4681 19.5041 17.1473 17.7653C18.8264 16.0266 19.666 13.9046 19.666 11.3993C19.666 8.89403 18.8264 6.77202 17.1473 5.03328C15.4681 3.29454 13.4188 2.42517 10.9993 2.42517C8.5799 2.42517 6.5306 3.29454 4.85143 5.03328C3.17227 6.77202 2.33268 8.89403 2.33268 11.3993C2.33268 13.9046 3.17227 16.0266 4.85143 17.7653C6.5306 19.5041 8.5799 20.3734 10.9993 20.3734Z" fill="#1C1B1F"/>
</svg>
