<svg width="20" height="22" viewBox="0 0 20 22" fill="none" xmlns="http://www.w3.org/2000/svg">
<path d="M2 6.29294H16V4.22198H2V6.29294ZM2 20.7896C1.45 20.7896 0.979167 20.5868 0.5875 20.1813C0.195833 19.7757 0 19.2882 0 18.7187V4.22198C0 3.65247 0.195833 3.16494 0.5875 2.75937C0.979167 2.35381 1.45 2.15103 2 2.15103H3V0.0800781H5V2.15103H13V0.0800781H15V2.15103H16C16.55 2.15103 17.0208 2.35381 17.4125 2.75937C17.8042 3.16494 18 3.65247 18 4.22198V10.0983C17.6833 9.94299 17.3583 9.81356 17.025 9.71001C16.6917 9.60646 16.35 9.5288 16 9.47703V8.36389H2V18.7187H8.3C8.41667 19.0983 8.55417 19.4608 8.7125 19.8059C8.87083 20.1511 9.05833 20.479 9.275 20.7896H2ZM15 21.8251C13.6167 21.8251 12.4375 21.3203 11.4625 20.3107C10.4875 19.3011 10 18.0801 10 16.6477C10 15.2153 10.4875 13.9943 11.4625 12.9847C12.4375 11.9751 13.6167 11.4703 15 11.4703C16.3833 11.4703 17.5625 11.9751 18.5375 12.9847C19.5125 13.9943 20 15.2153 20 16.6477C20 18.0801 19.5125 19.3011 18.5375 20.3107C17.5625 21.3203 16.3833 21.8251 15 21.8251ZM16.675 19.107L17.375 18.3821L15.5 16.4406V13.5413H14.5V16.8548L16.675 19.107Z" fill="#1C1B1F"/>
</svg>
