<svg width="18" height="19" viewBox="0 0 18 19" fill="none" xmlns="http://www.w3.org/2000/svg">
<path d="M16.95 18.7187C14.8667 18.7187 12.8083 18.2484 10.775 17.3078C8.74167 16.3673 6.89167 15.0341 5.225 13.3083C3.55833 11.5825 2.27083 9.66687 1.3625 7.5614C0.454167 5.45593 0 3.32457 0 1.16733C0 0.856686 0.1 0.597816 0.3 0.390721C0.5 0.183626 0.75 0.0800781 1.05 0.0800781H5.1C5.33333 0.0800781 5.54167 0.162053 5.725 0.326004C5.90833 0.489954 6.01667 0.684106 6.05 0.908459L6.7 4.53263C6.73333 4.80876 6.725 5.04174 6.675 5.23157C6.625 5.42141 6.53333 5.58536 6.4 5.72343L3.975 8.26034C4.30833 8.89889 4.70417 9.51586 5.1625 10.1113C5.62083 10.7067 6.125 11.2805 6.675 11.8327C7.19167 12.3677 7.73333 12.8639 8.3 13.3212C8.86667 13.7786 9.46667 14.1971 10.1 14.5768L12.45 12.1434C12.6 11.9881 12.7958 11.8716 13.0375 11.7939C13.2792 11.7162 13.5167 11.6947 13.75 11.7292L17.2 12.454C17.4333 12.5231 17.625 12.6482 17.775 12.8294C17.925 13.0106 18 13.2134 18 13.4377V17.6314C18 17.9421 17.9 18.2009 17.7 18.408C17.5 18.6151 17.25 18.7187 16.95 18.7187ZM3.025 6.29294L4.675 4.5844L4.25 2.15103H2.025C2.10833 2.85861 2.225 3.55755 2.375 4.24787C2.525 4.93819 2.74167 5.61988 3.025 6.29294ZM11.975 15.5605C12.625 15.8538 13.2875 16.0868 13.9625 16.2594C14.6375 16.432 15.3167 16.5442 16 16.5959V14.3179L13.65 13.826L11.975 15.5605Z" fill="#1C1B1F"/>
</svg>
