<svg width="24" height="26" viewBox="0 0 24 26" fill="none" xmlns="http://www.w3.org/2000/svg">
<mask id="mask0_915_46" style="mask-type:alpha" maskUnits="userSpaceOnUse" x="0" y="0" width="24" height="26">
<rect y="0.241699" width="24" height="24.8514" fill="#D9D9D9"/>
</mask>
<g mask="url(#mask0_915_46)">
<path d="M13.1 24.0577C11.7 24.0577 10.3875 23.7816 9.1625 23.2293C7.9375 22.677 6.87083 21.9306 5.9625 20.9901C5.05417 20.0495 4.33333 18.945 3.8 17.6766C3.26667 16.4081 3 15.049 3 13.5994C3 11.0797 3.775 8.85774 5.325 6.93348C6.875 5.00922 8.85 3.81411 11.25 3.34814C10.95 5.05668 11.0417 6.72639 11.525 8.35726C12.0083 9.98814 12.8417 11.4162 14.025 12.6415C15.2083 13.8669 16.5875 14.7298 18.1625 15.2302C19.7375 15.7307 21.35 15.8256 23 15.515C22.5667 18.0001 21.4167 20.0452 19.55 21.6502C17.6833 23.2552 15.5333 24.0577 13.1 24.0577ZM13.1 21.9867C14.5667 21.9867 15.925 21.607 17.175 20.8477C18.425 20.0884 19.4083 19.0442 20.125 17.7154C18.6917 17.5773 17.3333 17.202 16.05 16.5893C14.7667 15.9766 13.6167 15.1439 12.6 14.0912C11.5833 13.0385 10.775 11.8477 10.175 10.5188C9.575 9.18996 9.21667 7.78344 9.1 6.29925C7.81667 7.04134 6.8125 8.06388 6.0875 9.36685C5.3625 10.6698 5 12.0807 5 13.5994C5 15.9292 5.7875 17.9095 7.3625 19.5404C8.9375 21.1713 10.85 21.9867 13.1 21.9867Z" fill="#1C1B1F"/>
</g>
</svg>
