<svg width="24" height="26" viewBox="0 0 24 26" fill="none" xmlns="http://www.w3.org/2000/svg">
<mask id="mask0_915_13" style="mask-type:alpha" maskUnits="userSpaceOnUse" x="0" y="0" width="24" height="26">
<rect y="0.66748" width="24" height="24.8514" fill="#D9D9D9"/>
</mask>
<g mask="url(#mask0_915_13)">
<path d="M5 17.3408H6.425L16.2 7.34656L14.775 5.8896L5 15.8838V17.3408ZM3 19.3857V15.0403L16.2 1.56983C16.4 1.38239 16.6208 1.23754 16.8625 1.1353C17.1042 1.03306 17.3583 0.981934 17.625 0.981934C17.8917 0.981934 18.15 1.03306 18.4 1.1353C18.65 1.23754 18.8667 1.39091 19.05 1.59539L20.425 3.02679C20.625 3.21424 20.7708 3.43576 20.8625 3.69137C20.9542 3.94698 21 4.20259 21 4.45819C21 4.73084 20.9542 4.99071 20.8625 5.2378C20.7708 5.48488 20.625 5.71067 20.425 5.91516L7.25 19.3857H3ZM15.475 6.63086L14.775 5.8896L16.2 7.34656L15.475 6.63086Z" fill="#1C1B1F"/>
</g>
</svg>
