<svg width="24" height="26" viewBox="0 0 24 26" fill="none" xmlns="http://www.w3.org/2000/svg">
<mask id="mask0_915_58" style="mask-type:alpha" maskUnits="userSpaceOnUse" x="0" y="0" width="24" height="26">
<rect y="0.867188" width="24" height="24.8514" fill="#D9D9D9"/>
</mask>
<g mask="url(#mask0_915_58)">
<path d="M2.98319 21.5769C2.43782 21.5769 1.97094 21.3741 1.58256 20.9686C1.19419 20.563 1 20.0755 1 19.506V7.08023C1 6.51072 1.19419 6.02318 1.58256 5.61762C1.97094 5.21206 2.43782 5.00928 2.98319 5.00928H18.8487C19.3941 5.00928 19.861 5.21206 20.2494 5.61762C20.6377 6.02318 20.8319 6.51072 20.8319 7.08023V19.506C20.8319 20.0755 20.6377 20.563 20.2494 20.9686C19.861 21.3741 19.3941 21.5769 18.8487 21.5769H2.98319ZM10.916 14.3286L2.98319 9.15118V19.506H18.8487V9.15118L10.916 14.3286ZM10.916 12.2576L18.8487 7.08023H2.98319L10.916 12.2576ZM2.98319 9.15118V7.08023V19.506V9.15118Z" fill="black"/>
</g>
</svg>
