<svg width="24" height="26" viewBox="0 0 24 26" fill="none" xmlns="http://www.w3.org/2000/svg">
<mask id="mask0_915_25" style="mask-type:alpha" maskUnits="userSpaceOnUse" x="0" y="0" width="24" height="26">
<rect x="24" y="25.3413" width="24" height="24.8514" rx="12" transform="rotate(-180 24 25.3413)" fill="#D9D9D9"/>
</mask>
<g mask="url(#mask0_915_25)">
<path d="M4.95505 11.7178C4.5409 12.1471 4.84516 12.8634 5.44168 12.8634L14.9633 12.8634C15.5359 12.8634 16 13.3275 16 13.9C16 14.4725 15.5359 14.9367 14.9633 14.9367L5.44168 14.9367C4.84516 14.9367 4.5409 15.6529 4.95505 16.0822C5.20455 16.3409 5.20813 16.7495 4.9632 17.0125L4.73745 17.2549C4.33671 17.6851 3.65701 17.6911 3.2488 17.2679L1.91051 15.8806C0.844419 14.7754 0.844421 13.0246 1.91051 11.9195L3.2488 10.5321C3.65701 10.1089 4.33671 10.1149 4.73745 10.5451L4.9632 10.7875C5.20813 11.0505 5.20455 11.4591 4.95505 11.7178ZM8 17.01C8.55229 17.01 9 17.4577 9 18.01V19.0833C9 20.2284 9.92826 21.1567 11.0733 21.1567H14C16.7614 21.1567 19 18.9181 19 16.1567V11.6434C19 8.88195 16.7614 6.64338 14 6.64338H11.0733C9.92826 6.64338 9 7.57164 9 8.7167V9.79003C9 10.3423 8.55229 10.79 8 10.79C7.44771 10.79 7 10.3423 7 9.79003V6.64338C7 6.07321 7.19583 5.58512 7.5875 5.17909C7.97917 4.77306 8.45 4.57005 9 4.57005H19C19.55 4.57005 20.0208 4.77306 20.4125 5.17909C20.8042 5.58512 21 6.07321 21 6.64338L21 21.1567C21 21.7268 20.8042 22.2149 20.4125 22.6209C20.0208 23.027 19.55 23.23 19 23.23H9C8.45 23.23 7.97917 23.027 7.5875 22.6209C7.19583 22.2149 7 21.7268 7 21.1567V18.01C7 17.4577 7.44771 17.01 8 17.01Z" fill="black"/>
</g>
</svg>
