<svg width="24" height="26" viewBox="0 0 24 26" fill="none" xmlns="http://www.w3.org/2000/svg">
<mask id="mask0_915_55" style="mask-type:alpha" maskUnits="userSpaceOnUse" x="0" y="0" width="24" height="26">
<rect y="0.241699" width="24" height="24.8514" fill="#D9D9D9"/>
</mask>
<g mask="url(#mask0_915_55)">
<path d="M12 16.8092C12.2833 16.8092 12.5292 16.7013 12.7375 16.4856C12.9458 16.2699 13.05 16.0153 13.05 15.7219C13.05 15.4285 12.9458 15.174 12.7375 14.9583C12.5292 14.7425 12.2833 14.6347 12 14.6347C11.7167 14.6347 11.4708 14.7425 11.2625 14.9583C11.0542 15.174 10.95 15.4285 10.95 15.7219C10.95 16.0153 11.0542 16.2699 11.2625 16.4856C11.4708 16.7013 11.7167 16.8092 12 16.8092ZM11.25 13.5992H12.75C12.75 13.2713 12.7625 13.0124 12.7875 12.8226C12.8125 12.6328 12.85 12.4774 12.9 12.3566C12.9667 12.2186 13.0625 12.0762 13.1875 11.9295C13.3125 11.7828 13.5167 11.5628 13.8 11.2694C14.15 10.907 14.4125 10.5445 14.5875 10.1821C14.7625 9.81971 14.85 9.45729 14.85 9.09487C14.85 8.28375 14.5917 7.64089 14.075 7.1663C13.5583 6.6917 12.8667 6.45441 12 6.45441C11.3167 6.45441 10.7167 6.65287 10.2 7.04981C9.68333 7.44674 9.33333 7.97311 9.15 8.62891L10.5 9.19842C10.6167 8.80149 10.8083 8.49516 11.075 8.27943C11.3417 8.06371 11.65 7.95585 12 7.95585C12.4 7.95585 12.725 8.06802 12.975 8.29238C13.225 8.51673 13.35 8.80149 13.35 9.14665C13.35 9.44003 13.2875 9.69459 13.1625 9.91031C13.0375 10.126 12.8167 10.372 12.5 10.6481C12.2167 10.8897 11.9917 11.1097 11.825 11.3082C11.6583 11.5067 11.5333 11.7008 11.45 11.8907C11.3667 12.0632 11.3125 12.2746 11.2875 12.5249C11.2625 12.7751 11.25 13.1332 11.25 13.5992ZM12 20.278C14.0333 18.3451 15.5417 16.5891 16.525 15.01C17.5083 13.4309 18 12.0287 18 10.8034C18 8.92229 17.4208 7.38202 16.2625 6.18259C15.1042 4.98317 13.6833 4.38345 12 4.38345C10.3167 4.38345 8.89583 4.98317 7.7375 6.18259C6.57917 7.38202 6 8.92229 6 10.8034C6 12.0287 6.49167 13.4309 7.475 15.01C8.45833 16.5891 9.96667 18.3451 12 20.278ZM12 23.022C9.31667 20.6577 7.3125 18.4616 5.9875 16.4338C4.6625 14.406 4 12.5292 4 10.8034C4 8.21472 4.80417 6.15239 6.4125 4.61644C8.02083 3.08048 9.88333 2.3125 12 2.3125C14.1167 2.3125 15.9792 3.08048 17.5875 4.61644C19.1958 6.15239 20 8.21472 20 10.8034C20 12.5292 19.3375 14.406 18.0125 16.4338C16.6875 18.4616 14.6833 20.6577 12 23.022Z" fill="#1C1B1F"/>
</g>
</svg>
