<svg width="24" height="25" viewBox="0 0 24 25" fill="none" xmlns="http://www.w3.org/2000/svg">
<path d="M12 0.0800781C5.376 0.0800781 0 5.6468 0 12.5058C0 19.3648 5.376 24.9315 12 24.9315C18.624 24.9315 24 19.3648 24 12.5058C24 5.6468 18.624 0.0800781 12 0.0800781ZM6.42 20.5825C7.992 19.4145 9.912 18.7187 12 18.7187C14.088 18.7187 16.008 19.4145 17.58 20.5825C16.008 21.7505 14.088 22.4464 12 22.4464C9.912 22.4464 7.992 21.7505 6.42 20.5825ZM19.368 18.8678C17.2661 17.1601 14.6717 16.232 12 16.232C9.32834 16.232 6.73393 17.1601 4.632 18.8678C3.18831 17.0851 2.39796 14.8323 2.4 12.5058C2.4 7.01363 6.696 2.56522 12 2.56522C17.304 2.56522 21.6 7.01363 21.6 12.5058C21.6 14.9288 20.76 17.1406 19.368 18.8678Z" fill="0xFF15AB98"/>
<path d="M12.0008 5.05029C9.68478 5.05029 7.80078 7.00113 7.80078 9.39929C7.80078 11.7975 9.68478 13.7483 12.0008 13.7483C14.3168 13.7483 16.2008 11.7975 16.2008 9.39929C16.2008 7.00113 14.3168 5.05029 12.0008 5.05029ZM12.0008 11.2632C11.0048 11.2632 10.2008 10.4306 10.2008 9.39929C10.2008 8.36796 11.0048 7.53544 12.0008 7.53544C12.9968 7.53544 13.8008 8.36796 13.8008 9.39929C13.8008 10.4306 12.9968 11.2632 12.0008 11.2632Z" fill="black"/>
</svg>
