<svg width="30" height="30" viewBox="0 0 30 30" fill="none" xmlns="http://www.w3.org/2000/svg">
<mask id="mask0_2435_30" style="mask-type:alpha" maskUnits="userSpaceOnUse" x="0" y="0" width="30" height="30">
<rect width="30" height="30" fill="#D9D9D9"/>
</mask>
<g mask="url(#mask0_2435_30)">
<path d="M2.71875 12.5C2.63542 12.1875 2.57812 11.875 2.54688 11.5625C2.51562 11.25 2.5 10.9271 2.5 10.5938C2.5 8.63542 3.15625 7.00521 4.46875 5.70312C5.78125 4.40104 7.41667 3.75 9.375 3.75C10.4375 3.75 11.4635 3.97917 12.4531 4.4375C13.4427 4.89583 14.2917 5.54167 15 6.375C15.7083 5.54167 16.5521 4.89583 17.5312 4.4375C18.5104 3.97917 19.5417 3.75 20.625 3.75C22.5833 3.75 24.2188 4.40104 25.5313 5.70312C26.8438 7.00521 27.5 8.63542 27.5 10.5938V10.6562C27.1042 10.3021 26.6771 9.99479 26.2188 9.73438C25.7604 9.47396 25.2708 9.26042 24.75 9.09375C24.4583 8.23958 23.9375 7.55208 23.1875 7.03125C22.4375 6.51042 21.5833 6.25 20.625 6.25C19.7292 6.25 18.8646 6.51562 18.0312 7.04688C17.1979 7.57812 16.4271 8.35417 15.7188 9.375H14.2812C13.5938 8.375 12.8229 7.60417 11.9688 7.0625C11.1146 6.52083 10.25 6.25 9.375 6.25C8.14583 6.25 7.10938 6.67188 6.26563 7.51562C5.42188 8.35938 5 9.38542 5 10.5938C5 10.9271 5.03125 11.2448 5.09375 11.5469C5.15625 11.849 5.25 12.1667 5.375 12.5H2.71875ZM15 26.25L11.0312 22.6875C10.4688 22.1667 9.94792 21.6875 9.46875 21.25C8.98958 20.8125 8.54167 20.3958 8.125 20H11.7812C12.2604 20.4167 12.7656 20.8646 13.2969 21.3438C13.8281 21.8229 14.3958 22.3333 15 22.875C15.3542 22.5833 15.6823 22.3021 15.9844 22.0312C16.2865 21.7604 16.5833 21.4896 16.875 21.2188C17.1667 21.5312 17.474 21.8177 17.7969 22.0781C18.1198 22.3385 18.4688 22.5729 18.8438 22.7812L15 26.25ZM22.5 21.25C22.1458 21.25 21.849 21.1302 21.6094 20.8906C21.3698 20.651 21.25 20.3542 21.25 20C21.25 19.6458 21.3698 19.349 21.6094 19.1094C21.849 18.8698 22.1458 18.75 22.5 18.75C22.8542 18.75 23.151 18.8698 23.3906 19.1094C23.6302 19.349 23.75 19.6458 23.75 20C23.75 20.3542 23.6302 20.651 23.3906 20.8906C23.151 21.1302 22.8542 21.25 22.5 21.25ZM21.25 17.5V11.25H23.75V17.5H21.25ZM1.25 17.5V15H6.8125L9 11.7812C9.125 11.5938 9.27604 11.4583 9.45312 11.375C9.63021 11.2917 9.82292 11.25 10.0312 11.25C10.2396 11.25 10.4323 11.2969 10.6094 11.3906C10.7865 11.4844 10.9375 11.625 11.0625 11.8125L13.1875 15H15.125C15.0833 15.2083 15.0521 15.4115 15.0313 15.6094C15.0104 15.8073 15 16.0208 15 16.25C15 16.4792 15.0104 16.6927 15.0313 16.8906C15.0521 17.0885 15.0833 17.2917 15.125 17.5H12.5C12.2917 17.5 12.0938 17.4479 11.9063 17.3438C11.7188 17.2396 11.5729 17.1042 11.4688 16.9375L10 14.75L8.53125 16.9375C8.42708 17.1042 8.28125 17.2396 8.09375 17.3438C7.90625 17.4479 7.70833 17.5 7.5 17.5H1.25Z" fill="white"/>
</g>
</svg>
