<svg width="24" height="26" viewBox="0 0 24 26" fill="none" xmlns="http://www.w3.org/2000/svg">
<mask id="mask0_915_7" style="mask-type:alpha" maskUnits="userSpaceOnUse" x="0" y="0" width="24" height="26">
<rect y="0.490234" width="24" height="24.8514" fill="#D9D9D9"/>
</mask>
<g mask="url(#mask0_915_7)">
<path d="M9.24922 22.2528L8.84922 18.981C8.63255 18.8958 8.42839 18.7936 8.23672 18.6743C8.04505 18.555 7.85755 18.4272 7.67422 18.2909L4.69922 19.5689L1.94922 14.7124L4.52422 12.7186C4.50755 12.5994 4.49922 12.4843 4.49922 12.3736V11.6834C4.49922 11.5727 4.50755 11.4576 4.52422 11.3384L1.94922 9.34462L4.69922 4.48808L7.67422 5.76611C7.85755 5.62979 8.04922 5.50199 8.24922 5.3827C8.44922 5.26342 8.64922 5.16118 8.84922 5.07597L9.24922 1.8042H14.7492L15.1492 5.07597C15.3659 5.16118 15.5701 5.26342 15.7617 5.3827C15.9534 5.50199 16.1409 5.62979 16.3242 5.76611L19.2992 4.48808L22.0492 9.34462L19.4742 11.3384C19.4909 11.4576 19.4992 11.5727 19.4992 11.6834V12.3736C19.4992 12.4843 19.4826 12.5994 19.4492 12.7186L22.0242 14.7124L19.2742 19.5689L16.3242 18.2909C16.1409 18.4272 15.9492 18.555 15.7492 18.6743C15.5492 18.7936 15.3492 18.8958 15.1492 18.981L14.7492 22.2528H9.24922ZM10.9992 20.2079H12.9742L13.3242 17.4985C13.8409 17.3622 14.3201 17.1619 14.7617 16.8978C15.2034 16.6337 15.6076 16.3142 15.9742 15.9393L18.4492 16.9873L19.4242 15.2491L17.2742 13.5877C17.3576 13.3491 17.4159 13.0978 17.4492 12.8337C17.4826 12.5695 17.4992 12.3011 17.4992 12.0285C17.4992 11.7558 17.4826 11.4875 17.4492 11.2233C17.4159 10.9592 17.3576 10.7079 17.2742 10.4693L19.4242 8.80784L18.4492 7.06971L15.9742 8.14326C15.6076 7.75133 15.2034 7.4233 14.7617 7.15917C14.3201 6.89505 13.8409 6.69482 13.3242 6.5585L12.9992 3.84906H11.0242L10.6742 6.5585C10.1576 6.69482 9.67839 6.89505 9.23672 7.15917C8.79505 7.4233 8.39089 7.74281 8.02422 8.1177L5.54922 7.06971L4.57422 8.80784L6.72422 10.4437C6.64089 10.6993 6.58255 10.9549 6.54922 11.2106C6.51589 11.4662 6.49922 11.7388 6.49922 12.0285C6.49922 12.3011 6.51589 12.5653 6.54922 12.8209C6.58255 13.0765 6.64089 13.3321 6.72422 13.5877L4.57422 15.2491L5.54922 16.9873L8.02422 15.9137C8.39089 16.3057 8.79505 16.6337 9.23672 16.8978C9.67839 17.1619 10.1576 17.3622 10.6742 17.4985L10.9992 20.2079ZM12.0492 15.607C13.0159 15.607 13.8409 15.2577 14.5242 14.559C15.2076 13.8603 15.5492 13.0168 15.5492 12.0285C15.5492 11.0401 15.2076 10.1966 14.5242 9.49798C13.8409 8.79932 13.0159 8.44999 12.0492 8.44999C11.0659 8.44999 10.2367 8.79932 9.56172 9.49798C8.88672 10.1966 8.54922 11.0401 8.54922 12.0285C8.54922 13.0168 8.88672 13.8603 9.56172 14.559C10.2367 15.2577 11.0659 15.607 12.0492 15.607Z" fill="#1C1B1F"/>
</g>
</svg>
