<svg width="24" height="26" viewBox="0 0 24 26" fill="none" xmlns="http://www.w3.org/2000/svg">
<mask id="mask0_915_16" style="mask-type:alpha" maskUnits="userSpaceOnUse" x="0" y="0" width="24" height="26">
<rect y="0.490234" width="24" height="24.8514" fill="#D9D9D9"/>
</mask>
<g mask="url(#mask0_915_16)">
<path d="M4 17.2075V15.1626H6.725C5.875 14.4129 5.20833 13.5097 4.725 12.4532C4.24167 11.3967 4 10.255 4 9.02807C4 7.11953 4.56667 5.43679 5.7 3.97982C6.83333 2.52286 8.26667 1.56433 10 1.10424V3.25134C8.83333 3.67735 7.875 4.41436 7.125 5.46235C6.375 6.51034 6 7.69891 6 9.02807C6 9.94826 6.17917 10.796 6.5375 11.5714C6.89583 12.3467 7.38333 13.0155 8 13.5779V11.0729H10V17.2075H4ZM18 9.02807C18 8.159 17.8292 7.34532 17.4875 6.58702C17.1458 5.82872 16.65 5.1258 16 4.47826V6.98321H14V0.848633H20V2.89349H17.275C18.2583 3.79664 18.9542 4.76369 19.3625 5.79464C19.7708 6.82559 19.9833 7.9034 20 9.02807H18ZM16 19.2524C15.7167 19.2524 15.4792 19.1544 15.2875 18.9584C15.0958 18.7624 15 18.5196 15 18.2299V15.1626C15 14.873 15.0958 14.6301 15.2875 14.4342C15.4792 14.2382 15.7167 14.1402 16 14.1402V13.1178C16 12.5555 16.1958 12.0741 16.5875 11.6736C16.9792 11.2732 17.45 11.0729 18 11.0729C18.55 11.0729 19.0208 11.2732 19.4125 11.6736C19.8042 12.0741 20 12.5555 20 13.1178V14.1402C20.2833 14.1402 20.5208 14.2382 20.7125 14.4342C20.9042 14.6301 21 14.873 21 15.1626V18.2299C21 18.5196 20.9042 18.7624 20.7125 18.9584C20.5208 19.1544 20.2833 19.2524 20 19.2524H16ZM17 14.1402H19V13.1178C19 12.8281 18.9042 12.5853 18.7125 12.3893C18.5208 12.1933 18.2833 12.0954 18 12.0954C17.7167 12.0954 17.4792 12.1933 17.2875 12.3893C17.0958 12.5853 17 12.8281 17 13.1178V14.1402Z" fill="#1C1B1F"/>
</g>
</svg>
