<svg width="22" height="18" viewBox="0 0 22 18" fill="none" xmlns="http://www.w3.org/2000/svg">
<path d="M10.9076 10.7835C10.1639 10.7835 9.53172 10.5117 9.01114 9.9681C8.49055 9.42448 8.23025 8.76436 8.23025 7.98775C8.23025 7.21115 8.49055 6.55103 9.01114 6.00741C9.53172 5.46378 10.1639 5.19197 10.9076 5.19197C11.6513 5.19197 12.2834 5.46378 12.804 6.00741C13.3246 6.55103 13.5849 7.21115 13.5849 7.98775C13.5849 8.76436 13.3246 9.42448 12.804 9.9681C12.2834 10.5117 11.6513 10.7835 10.9076 10.7835ZM10.9076 15.7538C8.49468 15.7538 6.29664 15.0506 4.31345 13.644C2.33025 12.2375 0.892437 10.3521 0 7.98775C0.892437 5.62342 2.33025 3.73799 4.31345 2.33146C6.29664 0.924941 8.49468 0.22168 10.9076 0.22168C13.2378 0.22168 15.3656 0.877481 17.291 2.18909C19.2163 3.50069 20.6583 5.261 21.6168 7.47002H19.3609C18.5015 5.86503 17.3199 4.60088 15.816 3.67758C14.312 2.75428 12.6759 2.29263 10.9076 2.29263C9.04006 2.29263 7.32542 2.80606 5.76366 3.8329C4.20189 4.85975 3.00784 6.2447 2.18151 7.98775C3.00784 9.73081 4.20189 11.1158 5.76366 12.1426C7.32542 13.1695 9.04006 13.6829 10.9076 13.6829C11.2381 13.6829 11.5686 13.6656 11.8992 13.6311C12.2297 13.5966 12.5602 13.5448 12.8908 13.4758V15.5726C12.5602 15.6244 12.2297 15.6675 11.8992 15.7021C11.5686 15.7366 11.2381 15.7538 10.9076 15.7538ZM10.9076 12.6474C11.2711 12.6474 11.6223 12.6043 11.9611 12.518C12.2999 12.4317 12.6181 12.3109 12.9155 12.1555C12.9982 11.2927 13.2585 10.516 13.6964 9.82573C14.1344 9.13541 14.6922 8.58315 15.3697 8.16896V7.98775C15.3697 6.69341 14.9359 5.59321 14.0683 4.68717C13.2006 3.78113 12.1471 3.32811 10.9076 3.32811C9.66807 3.32811 8.6145 3.78113 7.74685 4.68717C6.8792 5.59321 6.44538 6.69341 6.44538 7.98775C6.44538 9.2821 6.8792 10.3823 7.74685 11.2883C8.6145 12.1944 9.66807 12.6474 10.9076 12.6474ZM15.8655 17.8248C15.5846 17.8248 15.3491 17.7255 15.159 17.5271C14.969 17.3286 14.874 17.0827 14.874 16.7893V13.6829C14.874 13.3895 14.969 13.1436 15.159 12.9451C15.3491 12.7466 15.5846 12.6474 15.8655 12.6474V11.6119C15.8655 11.0424 16.0597 10.5549 16.4481 10.1493C16.8365 9.74375 17.3034 9.54097 17.8487 9.54097C18.3941 9.54097 18.861 9.74375 19.2494 10.1493C19.6377 10.5549 19.8319 11.0424 19.8319 11.6119V12.6474C20.1129 12.6474 20.3484 12.7466 20.5384 12.9451C20.7285 13.1436 20.8235 13.3895 20.8235 13.6829V16.7893C20.8235 17.0827 20.7285 17.3286 20.5384 17.5271C20.3484 17.7255 20.1129 17.8248 19.8319 17.8248H15.8655ZM16.8571 12.6474H18.8403V11.6119C18.8403 11.3185 18.7453 11.0726 18.5553 10.8741C18.3652 10.6757 18.1297 10.5764 17.8487 10.5764C17.5678 10.5764 17.3323 10.6757 17.1422 10.8741C16.9522 11.0726 16.8571 11.3185 16.8571 11.6119V12.6474Z" fill="#C6C6C6"/>
</svg>
