<svg width="20" height="20" viewBox="0 0 20 20" fill="none" xmlns="http://www.w3.org/2000/svg">
<path d="M2 19.9158C1.45 19.9158 0.979167 19.713 0.5875 19.3074C0.195833 18.9019 0 18.4143 0 17.8448V6.45456C0 5.88505 0.195833 5.39751 0.5875 4.99195C0.979167 4.58639 1.45 4.38361 2 4.38361H6V2.31265C6 1.74314 6.19583 1.2556 6.5875 0.850042C6.97917 0.44448 7.45 0.241699 8 0.241699H12C12.55 0.241699 13.0208 0.44448 13.4125 0.850042C13.8042 1.2556 14 1.74314 14 2.31265V4.38361H18C18.55 4.38361 19.0208 4.58639 19.4125 4.99195C19.8042 5.39751 20 5.88505 20 6.45456V17.8448C20 18.4143 19.8042 18.9019 19.4125 19.3074C19.0208 19.713 18.55 19.9158 18 19.9158H2ZM2 17.8448H18V6.45456H2V17.8448ZM8 4.38361H12V2.31265H8V4.38361Z" fill="#1C1B1F"/>
</svg>
